<svg width="224" height="127" viewBox="0 0 224 127" fill="none" xmlns="http://www.w3.org/2000/svg">
<path d="M67.6811 7.41676L58.6208 2.72618C58.2174 2.51734 57.7599 2.43654 57.3094 2.49458L50.3167 3.39586C50.0226 3.45475 49.7181 3.43355 49.435 3.33447L44.9369 2.04533L36.9426 0.044645C36.5569 -0.0336629 36.1574 -0.00863442 35.7846 0.117194L25.6835 3.50748C25.2049 3.66772 24.7947 3.98543 24.5199 4.40876L11.2769 24.8063C11.0311 25.2077 10.8954 25.6667 10.8835 26.1373V50.5054C10.8813 50.9371 11.0054 51.36 11.2406 51.722L19.5335 64.5074C19.7586 64.8539 20.0755 65.1312 20.4488 65.3083L34.4731 71.966C34.6587 72.0524 34.8548 72.1143 35.0563 72.1502L42.9614 73.4979C43.4021 73.5727 43.8551 73.5134 44.2617 73.3277L59.9211 66.1956C60.1912 66.0727 60.434 65.8972 60.6355 65.6794L71.9978 53.4018C72.1562 53.2295 72.2871 53.0337 72.3857 52.8214L75.8262 45.3544C75.9336 45.1209 76.0006 44.8709 76.0243 44.615L77.6315 26.433C77.6682 26.0091 77.5841 25.5834 77.3888 25.2053L68.6382 8.37106C68.4255 7.96171 68.0911 7.62832 67.6811 7.41676ZM43.6618 49.3167L63.5793 49.8748C63.7027 49.8779 63.8232 49.9128 63.9291 49.9762C64.035 50.0395 64.1228 50.1291 64.184 50.2363C64.2452 50.3434 64.2776 50.4646 64.2783 50.588C64.2789 50.7114 64.2477 50.8329 64.1876 50.9407L58.3585 61.399C58.3045 61.4947 58.2303 61.5777 58.1412 61.6421C58.052 61.7064 57.95 61.7508 57.8421 61.772C57.7342 61.7932 57.623 61.7908 57.5161 61.7649C57.4092 61.7391 57.3092 61.6904 57.2229 61.6222L43.2153 50.5054C43.1047 50.4177 43.0247 50.2971 42.987 50.1611C42.9493 50.0251 42.9557 49.8805 43.0053 49.7484C43.0549 49.6162 43.1453 49.5032 43.2632 49.4256C43.3812 49.3481 43.5207 49.3099 43.6618 49.3167V49.3167ZM55.571 61.8733L40.0734 58.6198C39.881 58.5786 39.6995 58.4972 39.5408 58.3809C39.3821 58.2646 39.2498 58.1161 39.1526 57.9451C39.0554 57.7741 38.9954 57.5844 38.9766 57.3886C38.9579 57.1928 38.9807 56.9952 39.0437 56.8088L40.7598 51.7695C40.8416 51.5279 40.9804 51.3097 41.1644 51.1332C41.3485 50.9567 41.5723 50.8271 41.817 50.7553C42.0617 50.6836 42.3201 50.6719 42.5703 50.7212C42.8205 50.7704 43.0551 50.8792 43.2544 51.0384L55.9281 61.1088C56.0071 61.168 56.0633 61.2527 56.0871 61.3485C56.111 61.4443 56.1012 61.5454 56.0592 61.6348C56.0173 61.7242 55.9459 61.7965 55.857 61.8394C55.768 61.8823 55.6671 61.8933 55.571 61.8705V61.8733ZM53.2968 23.7515L43.8933 24.7477C43.7414 24.7637 43.5878 24.7436 43.4451 24.689C43.3024 24.6343 43.1746 24.5467 43.0723 24.4332C42.97 24.3197 42.896 24.1836 42.8563 24.036C42.8167 23.8884 42.8125 23.7336 42.8442 23.5841L44.9565 13.7006C44.9944 13.5194 45.0846 13.3532 45.2161 13.2227C45.3475 13.0923 45.5144 13.0033 45.6959 12.9668L54.7255 11.1056C54.8436 11.081 54.9658 11.085 55.0819 11.1173C55.1981 11.1496 55.3049 11.2091 55.3934 11.2911C55.4818 11.373 55.5494 11.4749 55.5905 11.5882C55.6316 11.7016 55.645 11.8231 55.6296 11.9427L54.1786 22.8809C54.1511 23.1041 54.049 23.3114 53.889 23.4694C53.729 23.6274 53.5204 23.7268 53.2968 23.7515V23.7515ZM57.0248 12.3557L65.58 21.7648C65.6344 21.8242 65.6711 21.8975 65.686 21.9767C65.7009 22.0558 65.6934 22.1375 65.6644 22.2126C65.6354 22.2877 65.5861 22.3532 65.5218 22.4018C65.4576 22.4504 65.3811 22.48 65.3009 22.4875L54.9487 23.5869C54.8923 23.5921 54.8355 23.5845 54.7824 23.5646C54.7294 23.5446 54.6816 23.5129 54.6426 23.4718C54.6037 23.4307 54.5746 23.3812 54.5575 23.3272C54.5404 23.2732 54.5359 23.216 54.5441 23.1599L55.9393 12.7017C55.9573 12.5847 56.0077 12.4751 56.0846 12.3851C56.1616 12.2951 56.2621 12.2284 56.3749 12.1925C56.4876 12.1565 56.6082 12.1528 56.723 12.1816C56.8379 12.2104 56.9423 12.2707 57.0248 12.3557V12.3557ZM53.5117 25.6155L49.3262 39.623C49.3074 39.6836 49.2713 39.7375 49.2225 39.7779C49.1736 39.8184 49.1139 39.8437 49.0509 39.8508C48.9878 39.8579 48.9241 39.8465 48.8674 39.8179C48.8107 39.7894 48.7636 39.7449 48.7318 39.69L45.4001 33.7996C45.1399 33.3406 44.9294 32.8551 44.7723 32.3514L42.8191 26.1875C42.7848 26.0771 42.7758 25.9604 42.7928 25.8461C42.8097 25.7317 42.8522 25.6227 42.9171 25.527C42.9819 25.4313 43.0675 25.3514 43.1674 25.2933C43.2674 25.2352 43.3791 25.2004 43.4943 25.1913L52.376 24.2482C52.5509 24.2299 52.7275 24.255 52.8903 24.3213C53.0531 24.3876 53.197 24.493 53.3094 24.6282C53.4217 24.7635 53.4989 24.9243 53.5342 25.0965C53.5695 25.2687 53.5618 25.447 53.5117 25.6155V25.6155ZM42.967 47.9746L48.8797 42.1344C49.0244 41.9924 49.21 41.8996 49.4103 41.8691C49.6106 41.8385 49.8155 41.8718 49.9959 41.9641L63.1803 48.8507C63.2455 48.8845 63.2974 48.9394 63.3273 49.0064C63.3572 49.0735 63.3635 49.1488 63.345 49.2198C63.3265 49.2909 63.2843 49.3536 63.2255 49.3976C63.1667 49.4416 63.0946 49.4642 63.0212 49.4618L43.3269 48.9038C43.2241 48.8937 43.1261 48.8553 43.0439 48.7928C42.9616 48.7303 42.8983 48.6463 42.861 48.5499C42.8237 48.4536 42.8138 48.3488 42.8325 48.2473C42.8512 48.1457 42.8978 48.0513 42.967 47.9746V47.9746ZM50.5344 40.8871L66.2413 32.3681C66.3619 32.3024 66.4984 32.2716 66.6356 32.2791C66.7727 32.2866 66.9051 32.3322 67.0177 32.4107C67.1304 32.4892 67.219 32.5976 67.2736 32.7236C67.3282 32.8496 67.3466 32.9884 67.3267 33.1243L65.1419 48.1671C65.1214 48.2975 65.0703 48.4213 64.9929 48.5282C64.9154 48.6351 64.8137 48.7222 64.6962 48.7824C64.5787 48.8425 64.4485 48.874 64.3165 48.8742C64.1845 48.8745 64.0542 48.8435 63.9365 48.7838L50.5428 41.7911C50.4615 41.7473 50.3935 41.6825 50.3458 41.6034C50.2981 41.5243 50.2725 41.4339 50.2716 41.3416C50.2708 41.2492 50.2947 41.1584 50.3409 41.0784C50.3871 40.9985 50.4539 40.9324 50.5344 40.8871V40.8871ZM49.8396 39.5672L54.2093 24.6918C54.2659 24.4974 54.3793 24.3242 54.5349 24.1945C54.6904 24.0647 54.8812 23.9843 55.0827 23.9636L65.1921 22.8809C65.5281 22.8458 65.8646 22.9426 66.1306 23.1509C66.3966 23.3591 66.5714 23.6625 66.618 23.9971L67.4914 30.3646C67.5248 30.6064 67.4834 30.8527 67.3726 31.0702C67.2619 31.2877 67.0871 31.4661 66.8719 31.5812L50.6879 40.2564C50.585 40.3121 50.4679 40.336 50.3514 40.325C50.2349 40.3141 50.1243 40.2689 50.0335 40.1952C49.9427 40.1214 49.8758 40.0224 49.8413 39.9106C49.8068 39.7988 49.8062 39.6793 49.8396 39.5672V39.5672ZM67.8234 23.2799L75.1146 25.7466C75.1868 25.771 75.2504 25.8154 75.2981 25.8748C75.3458 25.9342 75.3754 26.0059 75.3837 26.0816C75.3919 26.1573 75.3783 26.2337 75.3444 26.3019C75.3106 26.3701 75.258 26.4273 75.1928 26.4665L68.694 30.3339C68.6539 30.3594 68.608 30.3741 68.5606 30.3769C68.5132 30.3796 68.4659 30.3702 68.4231 30.3495C68.3804 30.3288 68.3436 30.2976 68.3163 30.2587C68.289 30.2199 68.2721 30.1747 68.2671 30.1275L67.3742 23.651C67.3664 23.5933 67.3735 23.5344 67.3948 23.4801C67.416 23.4259 67.4508 23.3779 67.4958 23.3407C67.5407 23.3036 67.5944 23.2785 67.6517 23.2679C67.709 23.2573 67.7681 23.2614 67.8234 23.2799V23.2799ZM74.7714 24.7867L67.656 22.3814C67.5347 22.3401 67.4302 22.2602 67.3586 22.1539C67.2871 22.0475 67.2523 21.9206 67.2598 21.7927L67.9267 11.2479C67.9303 11.2056 67.9475 11.1655 67.9757 11.1336C68.0039 11.1018 68.0416 11.0799 68.0832 11.0711C68.1249 11.0624 68.1682 11.0672 68.2068 11.085C68.2455 11.1028 68.2774 11.1325 68.2978 11.1698L75.1258 24.3737C75.1635 24.4246 75.1828 24.4867 75.1805 24.5499C75.1783 24.6131 75.1546 24.6737 75.1134 24.7217C75.0722 24.7697 75.0159 24.8022 74.9538 24.8141C74.8917 24.8259 74.8274 24.8162 74.7714 24.7867V24.7867ZM67.2123 9.79135L66.5148 20.7965C66.5108 20.8595 66.4884 20.9199 66.4503 20.9702C66.4121 21.0205 66.3601 21.0584 66.3005 21.0793C66.2409 21.1001 66.1766 21.1029 66.1154 21.0874C66.0543 21.0718 65.999 21.0386 65.9567 20.9918L57.2926 11.4656C57.2411 11.4099 57.2058 11.3412 57.1903 11.2669C57.1748 11.1927 57.1798 11.1156 57.2047 11.0439C57.2297 10.9723 57.2736 10.9088 57.3318 10.8602C57.3901 10.8116 57.4604 10.7797 57.5354 10.768L66.7045 9.31978C66.7701 9.31103 66.8369 9.3169 66.9 9.33697C66.9631 9.35705 67.021 9.39082 67.0696 9.43589C67.1181 9.48095 67.1561 9.53618 67.1807 9.59764C67.2054 9.65909 67.2162 9.72524 67.2123 9.79135ZM58.1186 4.23855L65.5911 8.06133C65.6488 8.08515 65.6968 8.1276 65.7275 8.1819C65.7582 8.2362 65.7698 8.29922 65.7605 8.3609C65.7512 8.42258 65.7215 8.47936 65.6761 8.52217C65.6307 8.56498 65.5723 8.59135 65.5102 8.59708L56.5253 10.1318C56.4099 10.1523 56.2912 10.1416 56.1813 10.1009C56.0714 10.0602 55.9744 9.9909 55.9002 9.90018L52.0635 5.22633C52.0313 5.18485 52.0105 5.13567 52.0031 5.08367C51.9958 5.03167 52.0022 4.97865 52.0216 4.92987C52.0411 4.88108 52.0729 4.83823 52.1141 4.80556C52.1552 4.77289 52.2041 4.75153 52.256 4.7436L57.2173 4.08787C57.5288 4.04367 57.8463 4.09627 58.1269 4.23855H58.1186ZM51.3073 5.58071L54.7981 9.82484C54.8635 9.8997 54.9078 9.9907 54.9263 10.0884C54.9448 10.1861 54.9369 10.287 54.9033 10.3806C54.8697 10.4743 54.8117 10.5572 54.7353 10.6209C54.6589 10.6846 54.5669 10.7267 54.4688 10.7429L46.6558 12.2887C46.5725 12.3047 46.4862 12.2953 46.4083 12.2617C46.3304 12.2281 46.2643 12.172 46.2186 12.1004C46.1729 12.0289 46.1498 11.9453 46.1521 11.8605C46.1544 11.7757 46.1821 11.6935 46.2317 11.6246L50.6042 5.58071C50.6462 5.52782 50.6997 5.4851 50.7606 5.45574C50.8214 5.42637 50.8882 5.41112 50.9557 5.41112C51.0233 5.41112 51.09 5.42637 51.1509 5.45574C51.2118 5.4851 51.2652 5.52782 51.3073 5.58071V5.58071ZM45.4001 3.11683L49.1253 3.97346C49.7447 4.15205 49.555 4.72965 49.3652 4.99473L44.3705 11.8953C44.2235 12.115 44.1159 12.3586 44.0524 12.6152L41.4434 24.7532C41.3684 25.1284 41.3789 25.5156 41.4741 25.8861L43.4943 32.3681C43.6407 32.8121 43.8275 33.2418 44.0524 33.6517L47.6185 40.0918C47.9254 40.7755 47.9226 41.42 47.5403 41.7967L41.3318 47.7848C40.9212 48.1637 40.6074 48.6354 40.4166 49.1605L37.6262 57.4701C37.4309 58.0868 36.817 57.872 36.7891 57.3585L36.3147 48.8982C36.2573 48.3392 36.3349 47.7747 36.5408 47.2519L40.5003 39.3133C40.8965 38.4762 41.0751 37.8009 40.757 36.9192L38.3768 30.5739C38.2104 30.154 38.0906 29.717 38.0197 29.2708L37.0514 20.0431C36.9941 19.7295 37.024 19.4061 37.1379 19.1084L40.983 9.83042C41.1402 9.43119 41.3268 9.04414 41.5411 8.67242L44.6105 3.37075C44.6909 3.23963 44.8151 3.14113 44.9611 3.09263C45.1071 3.04414 45.2656 3.04875 45.4085 3.10566L45.4001 3.11683ZM18.1942 26.2768L25.9151 26.1205C26.0915 26.1153 26.2657 26.1618 26.4161 26.2541C26.5665 26.3465 26.6868 26.4807 26.762 26.6404C26.8373 26.8001 26.8643 26.9783 26.8397 27.1531C26.8152 27.3279 26.7402 27.4917 26.6238 27.6245L18.1774 37.7479C18.0995 37.8405 17.9956 37.9075 17.8791 37.9402C17.7626 37.9729 17.639 37.9698 17.5243 37.9312C17.4096 37.8927 17.3092 37.8205 17.236 37.7241C17.1629 37.6278 17.1205 37.5116 17.1143 37.3908L16.5004 28.11C16.4861 27.876 16.5192 27.6415 16.5979 27.4206C16.6765 27.1997 16.799 26.997 16.958 26.8247C17.1171 26.6524 17.3093 26.5141 17.5232 26.418C17.737 26.3219 17.9681 26.2701 18.2026 26.2656L18.1942 26.2768ZM15.9228 40.7392L13.0404 47.0147C13.0104 47.0725 12.9622 47.1188 12.9032 47.1464C12.8443 47.174 12.7778 47.1814 12.7142 47.1674C12.6507 47.1534 12.5935 47.1189 12.5515 47.069C12.5096 47.0192 12.4853 46.957 12.4823 46.8919V30.6353C12.4814 30.547 12.5119 30.4612 12.5686 30.3934C12.6252 30.3256 12.7042 30.2802 12.7913 30.2654C12.8784 30.2506 12.9679 30.2674 13.0437 30.3127C13.1196 30.358 13.1768 30.4288 13.205 30.5125L16.0261 38.4706C16.2903 39.2111 16.2532 40.0257 15.9228 40.7392V40.7392ZM17.6166 24.5998L26.0379 12.8803C26.4508 12.3222 27.8739 12.484 27.8879 13.1593L28.1111 24.8425C28.1112 25.0612 28.0257 25.2712 27.8729 25.4277C27.7201 25.5841 27.5121 25.6745 27.2935 25.6796L17.9012 25.7159C17.2371 25.7438 17.2148 25.1132 17.6166 24.5886V24.5998ZM28.2395 27.7278L29.1212 42.6924C29.1308 42.8508 29.1005 43.0091 29.033 43.1528C28.9656 43.2964 28.8632 43.4209 28.7352 43.5147C28.6072 43.6086 28.4577 43.6688 28.3004 43.6899C28.1431 43.711 27.9831 43.6923 27.8349 43.6356L18.6211 39.9021C17.8482 39.6063 17.9179 38.9868 18.4453 38.3534L27.3103 27.4208C27.3782 27.3404 27.4686 27.2822 27.5699 27.2536C27.6711 27.225 27.7786 27.2274 27.8786 27.2604C27.9785 27.2934 28.0662 27.3555 28.1306 27.4388C28.1949 27.5221 28.2328 27.6227 28.2395 27.7278V27.7278ZM29.7937 24.8342L34.1578 20.8858C34.2971 20.76 34.4683 20.6749 34.6528 20.6401C34.8372 20.6052 35.0277 20.6219 35.2033 20.6882C35.3789 20.7545 35.5328 20.8679 35.6482 21.016C35.7635 21.1641 35.8358 21.3411 35.8571 21.5276L36.6356 28.4086C36.6537 28.5679 36.628 28.7292 36.5615 28.8751C36.495 29.021 36.39 29.146 36.2579 29.2369C36.1258 29.3277 35.9714 29.381 35.8114 29.3909C35.6513 29.4008 35.4916 29.367 35.3493 29.2931L30.0141 26.5223C29.8653 26.4457 29.7373 26.3341 29.6411 26.1972C29.5448 26.0602 29.4832 25.902 29.4616 25.736C29.4399 25.57 29.4588 25.4013 29.5166 25.2442C29.5745 25.0871 29.6695 24.9464 29.7937 24.8342V24.8342ZM37.004 30.906L39.2362 37.3238C39.3226 37.5717 39.3206 37.8419 39.2306 38.0885C39.1406 38.3351 38.9681 38.5431 38.7424 38.6771L30.7061 43.4654C30.5924 43.5339 30.4629 43.5718 30.3302 43.5755C30.1975 43.5792 30.0661 43.5486 29.9487 43.4865C29.8314 43.4245 29.732 43.3331 29.6604 43.2214C29.5887 43.1096 29.5472 42.9812 29.5398 42.8487L28.6357 27.5017C28.6278 27.3711 28.6547 27.2407 28.7137 27.1238C28.7727 27.007 28.8616 26.9079 28.9714 26.8367C29.0812 26.7655 29.208 26.7247 29.3387 26.7185C29.4694 26.7123 29.5995 26.7409 29.7156 26.8014L36.5184 30.3563C36.7465 30.4696 36.9208 30.6681 37.004 30.9088V30.906ZM28.499 24.3682L28.2813 12.8161C28.2776 12.6562 28.3233 12.499 28.4121 12.366C28.5009 12.233 28.6286 12.1305 28.7777 12.0726C28.9268 12.0147 29.0901 12.0041 29.2454 12.0422C29.4007 12.0804 29.5405 12.1655 29.6458 12.2859L34.3894 17.6881C34.7078 18.0513 34.8708 18.5252 34.8431 19.0075C34.8154 19.4898 34.5994 19.9419 34.2415 20.2663L29.3221 24.7309C29.2514 24.7942 29.1639 24.8357 29.0702 24.8506C28.9765 24.8655 28.8805 24.853 28.7937 24.8148C28.7068 24.7765 28.6329 24.714 28.5806 24.6348C28.5283 24.5556 28.5 24.4631 28.499 24.3682V24.3682ZM29.1407 45.9823L28.4906 57.7408C28.4459 58.5584 27.3744 59.6243 26.6657 58.2626L18.3811 41.6544C18.3217 41.5375 18.2987 41.4055 18.315 41.2754C18.3314 41.1453 18.3864 41.0231 18.4729 40.9246C18.5594 40.826 18.6735 40.7557 18.8004 40.7227C18.9273 40.6896 19.0612 40.6954 19.1848 40.7392L27.9158 44.0876C28.2943 44.233 28.6169 44.4948 28.8371 44.8353C29.0572 45.1758 29.1636 45.5774 29.1407 45.9823V45.9823ZM31.4065 45.9153L33.8285 47.4165C34.1712 47.6292 34.4577 47.9213 34.6636 48.268C34.8695 48.6148 34.9889 49.0061 35.0116 49.4088L35.3521 55.6704C35.3808 56.2094 35.2596 56.7458 35.002 57.2201C34.7444 57.6944 34.3605 58.0881 33.8927 58.3575L30.4745 60.3107C30.3002 60.4118 30.1017 60.4638 29.9002 60.4612C29.6987 60.4586 29.5016 60.4015 29.3299 60.2959C29.1582 60.1903 29.0184 60.0402 28.9251 59.8616C28.8319 59.6829 28.7887 59.4823 28.8003 59.2811L29.484 46.9031C29.4977 46.6857 29.5677 46.4755 29.6871 46.2933C29.8064 46.111 29.971 45.9629 30.1648 45.8633C30.3585 45.7638 30.5748 45.7162 30.7925 45.7253C31.0102 45.7344 31.2217 45.7999 31.4065 45.9153V45.9153ZM33.5997 46.8054L30.6057 44.9498C30.5211 44.9008 30.4509 44.8304 30.4021 44.7456C30.3533 44.6609 30.3276 44.5649 30.3276 44.4671C30.3276 44.3693 30.3533 44.2733 30.4021 44.1886C30.4509 44.1038 30.5211 44.0334 30.6057 43.9844L37.6178 39.7988C37.7243 39.7357 37.8482 39.7082 37.9714 39.7205C38.0946 39.7327 38.2107 39.7841 38.3026 39.867C38.3946 39.9499 38.4576 40.06 38.4825 40.1813C38.5074 40.3026 38.4928 40.4286 38.441 40.5411L35.8488 46.1218C35.7557 46.3233 35.6211 46.503 35.4537 46.6488C35.2863 46.7946 35.09 46.9034 34.8776 46.968C34.6651 47.0325 34.4415 47.0514 34.2212 47.0234C34.001 46.9954 33.7892 46.9211 33.5997 46.8054V46.8054ZM39.8166 9.13562L36.2785 17.3253C36.223 17.4629 36.1332 17.584 36.0178 17.6771C35.9023 17.7703 35.765 17.8324 35.6188 17.8575C35.4726 17.8827 35.3224 17.8701 35.1824 17.8209C35.0425 17.7717 34.9174 17.6875 34.8191 17.5764L29.9416 12.0236C29.7737 11.8323 29.6524 11.6047 29.5873 11.3586C29.5222 11.1125 29.5151 10.8547 29.5665 10.6054C29.6178 10.356 29.7263 10.122 29.8834 9.92173C30.0405 9.72142 30.2419 9.56027 30.4717 9.45093L41.3792 4.22739C41.8145 4.0209 42.367 4.55665 42.1187 4.96962L40.0566 8.6501C39.9644 8.80562 39.8842 8.96793 39.8166 9.13562V9.13562ZM37.3053 1.69095L40.6063 2.3997C40.745 2.42877 40.8709 2.5007 40.9665 2.60532C41.062 2.70993 41.1222 2.84193 41.1385 2.98264C41.1549 3.12335 41.1266 3.26564 41.0576 3.38937C40.9886 3.51311 40.8825 3.61202 40.7542 3.67211L29.4002 9.07702C29.2474 9.14996 29.0815 9.19164 28.9123 9.19962C28.7431 9.2076 28.574 9.18173 28.415 9.12351C28.2559 9.0653 28.1101 8.97591 27.9861 8.8606C27.862 8.74529 27.7622 8.60637 27.6925 8.45198L27.0815 7.09587C26.9641 6.83422 26.9028 6.55092 26.9014 6.26416C26.9 5.9774 26.9586 5.69352 27.0734 5.43075C27.1883 5.16798 27.3568 4.93213 27.5682 4.73835C27.7795 4.54456 28.0291 4.39713 28.3008 4.30552L35.8515 1.7942C36.3182 1.63054 36.8202 1.59489 37.3053 1.69095V1.69095ZM26.2806 7.27166L26.7522 8.31526C26.9851 8.82915 27.0519 9.40288 26.9434 9.95654C26.8349 10.5102 26.5564 11.0162 26.1467 11.4042L16.1879 20.83C16.154 20.8565 16.112 20.8705 16.069 20.8696C16.0259 20.8687 15.9845 20.853 15.9517 20.8251C15.919 20.7972 15.8968 20.7589 15.889 20.7166C15.8812 20.6743 15.8882 20.6306 15.9089 20.5928L24.598 7.15447C24.6915 7.00917 24.8225 6.89179 24.9772 6.81474C25.1318 6.73768 25.3044 6.70379 25.4767 6.71665C25.649 6.72951 25.8146 6.78863 25.9561 6.88779C26.0976 6.98695 26.2097 7.12247 26.2806 7.28004V7.27166ZM23.2364 15.8436L16.732 24.4351C16.4431 24.8175 16.0596 25.1182 15.6193 25.3075C15.179 25.4968 14.697 25.5683 14.2207 25.515V25.515C14.081 25.4997 13.9486 25.4448 13.8391 25.3568C13.7295 25.2687 13.6475 25.1511 13.6026 25.018C13.5577 24.8848 13.5519 24.7415 13.5858 24.6051C13.6196 24.4687 13.6918 24.3449 13.7938 24.2482L22.9238 15.5618C22.9629 15.5281 23.013 15.5097 23.0647 15.5103C23.1164 15.5109 23.166 15.5303 23.2044 15.5649C23.2428 15.5995 23.2672 15.6469 23.2731 15.6982C23.279 15.7495 23.2659 15.8013 23.2364 15.8436V15.8436ZM15.6857 27.9035L16.1823 35.404C16.187 35.4552 16.1726 35.5064 16.1419 35.5477C16.1112 35.5889 16.0664 35.6175 16.016 35.6278C15.9656 35.6382 15.9132 35.6296 15.8688 35.6038C15.8243 35.5779 15.7909 35.5366 15.7749 35.4877L12.9846 27.5575C12.9307 27.4062 12.9162 27.2437 12.9423 27.0852C12.9684 26.9268 13.0343 26.7775 13.1339 26.6515C13.2334 26.5254 13.3634 26.4267 13.5115 26.3646C13.6596 26.3025 13.8211 26.279 13.9807 26.2963L14.1705 26.3186C14.5689 26.363 14.939 26.546 15.216 26.8358C15.493 27.1256 15.6593 27.5035 15.6857 27.9035ZM13.0041 48.8591L16.0735 42.2711C16.1105 42.1914 16.1723 42.1257 16.2496 42.084C16.327 42.0423 16.4158 42.0267 16.5027 42.0395C16.5897 42.0524 16.6701 42.0931 16.7321 42.1554C16.794 42.2178 16.8341 42.2985 16.8464 42.3855L19.3829 59.934C19.3976 60.0262 19.3801 60.1206 19.3332 60.2012C19.2864 60.2819 19.2131 60.3439 19.1257 60.3768C19.0384 60.4096 18.9424 60.4112 18.854 60.3814C18.7656 60.3516 18.6902 60.2921 18.6406 60.2131L13.1939 51.7081C12.9246 51.2877 12.766 50.8061 12.7328 50.308C12.6997 49.8099 12.793 49.3115 13.0041 48.8591V48.8591ZM20.6943 63.3411L17.8231 43.5295C17.8099 43.4625 17.8218 43.393 17.8565 43.3342C17.8911 43.2753 17.9462 43.2312 18.0112 43.2102C18.0762 43.1893 18.1466 43.1929 18.2091 43.2203C18.2717 43.2478 18.3219 43.2973 18.3504 43.3593L27.2293 60.2717C27.6284 61.0334 27.7065 61.7924 26.8889 62.0659L21.4812 63.9075C21.3019 63.9357 21.1187 63.8921 20.9713 63.786C20.824 63.68 20.7245 63.5201 20.6943 63.3411V63.3411ZM22.8597 64.1782L27.3856 62.3449C28.1334 62.0324 28.3846 62.3644 28.6664 62.7802L32.492 68.4474C32.5428 68.5215 32.5677 68.6103 32.5628 68.7C32.5579 68.7897 32.5235 68.8753 32.4649 68.9434C32.4063 69.0116 32.3269 69.0584 32.2389 69.0767C32.1509 69.095 32.0594 69.0837 31.9785 69.0445L22.9573 64.753C22.6448 64.6023 22.5332 64.2954 22.8597 64.1782ZM33.3179 68.5144L29.2635 62.5235C28.9036 61.9877 29.3863 61.4687 29.9444 61.1423L34.5652 58.4412C34.6602 58.3857 34.7678 58.3555 34.8777 58.3534C34.9877 58.3513 35.0963 58.3773 35.1934 58.4291C35.2904 58.4808 35.3726 58.5565 35.4321 58.649C35.4917 58.7415 35.5265 58.8476 35.5334 58.9574L35.7371 61.0837C35.8181 62.1998 36.7724 62.4788 37.2886 61.4771L37.7797 60.0373C38.0141 59.3536 38.9321 58.7844 39.6381 58.9351L45.1155 60.0847C45.4312 60.1511 45.729 60.2841 45.9892 60.4748C46.2494 60.6654 46.466 60.9094 46.6244 61.1903C46.7829 61.4713 46.8796 61.7829 46.9081 62.1042C46.9366 62.4255 46.8962 62.7492 46.7897 63.0536L44.3705 69.9486C44.1831 70.4833 43.8131 70.9348 43.3258 71.2236C42.8384 71.5125 42.2647 71.6202 41.7057 71.528L35.4916 70.4927C34.2862 70.289 33.7867 69.2148 33.3179 68.5227V68.5144ZM44.7723 70.0016L47.4538 62.3644C47.6177 61.9015 47.9437 61.5135 48.3715 61.2724C48.7994 61.0313 49.3001 60.9533 49.781 61.053L55.7356 62.3058C55.8743 62.3349 56.0015 62.404 56.1014 62.5045C56.2013 62.6051 56.2696 62.7327 56.2978 62.8716C56.326 63.0105 56.3129 63.1546 56.2601 63.2861C56.2073 63.4177 56.1171 63.5309 56.0007 63.6117L45.7517 70.7467C45.6403 70.8246 45.5071 70.8653 45.3711 70.863C45.2352 70.8606 45.1035 70.8154 44.9948 70.7336C44.8861 70.6519 44.8061 70.5379 44.7661 70.4079C44.7262 70.2779 44.7283 70.1387 44.7723 70.01V70.0016ZM50.2163 68.6427L57.2982 63.6843C57.3878 63.6216 57.4894 63.5785 57.5967 63.5576C57.704 63.5367 57.8144 63.5385 57.9209 63.563C58.0274 63.5875 58.1276 63.634 58.215 63.6996C58.3024 63.7652 58.3751 63.8483 58.4283 63.9438L58.4869 64.0498C58.5497 64.1628 58.5883 64.2876 58.6004 64.4164C58.6125 64.5451 58.5978 64.6749 58.5571 64.7976C58.5165 64.9204 58.4508 65.0333 58.3643 65.1294C58.2777 65.2254 58.1722 65.3025 58.0544 65.3557L50.3419 68.8632C50.3132 68.8741 50.2816 68.8744 50.2528 68.864C50.224 68.8537 50.1998 68.8334 50.1846 68.8068C50.1694 68.7801 50.1643 68.749 50.1701 68.7189C50.1759 68.6888 50.1923 68.6618 50.2163 68.6427V68.6427ZM59.3547 63.9717L58.9334 63.2127C58.8567 63.0752 58.8326 62.9146 58.8655 62.7606C58.8983 62.6067 58.9859 62.4699 59.1119 62.3756L65.7809 57.392C65.807 57.373 65.8392 57.3642 65.8713 57.3675C65.9034 57.3707 65.9333 57.3857 65.955 57.4095C65.9768 57.4334 65.989 57.4644 65.9893 57.4967C65.9896 57.529 65.978 57.5603 65.9567 57.5846L60.0383 64.047C59.9939 64.0972 59.9382 64.1361 59.8758 64.1606C59.8134 64.1851 59.7461 64.1945 59.6794 64.188C59.6127 64.1814 59.5485 64.1592 59.4921 64.123C59.4356 64.0869 59.3886 64.0379 59.3547 63.98V63.9717ZM69.8771 53.3348L60.2504 60.5507C60.2085 60.5804 60.1578 60.5951 60.1065 60.5924C60.0551 60.5898 60.0062 60.57 59.9676 60.5361C59.9289 60.5023 59.9027 60.4564 59.8933 60.4059C59.8839 60.3554 59.8917 60.3032 59.9156 60.2577L65.1726 50.8291C65.2634 50.6679 65.4095 50.5449 65.5838 50.4829C65.7582 50.4209 65.949 50.4239 66.1213 50.4915L69.9525 52.0011C70.0481 52.0394 70.133 52.1003 70.1998 52.1787C70.2667 52.257 70.3135 52.3505 70.3363 52.4509C70.3591 52.5514 70.3571 52.6558 70.3306 52.7554C70.3041 52.8549 70.2538 52.9465 70.1841 53.0223L69.8771 53.3348ZM70.5831 51.3816L67.4132 50.1315C67.3204 50.0948 67.2402 50.0318 67.1826 49.9503C67.125 49.8687 67.0924 49.7721 67.0889 49.6723C67.0853 49.5725 67.1109 49.4738 67.1626 49.3884C67.2143 49.3029 67.2897 49.2344 67.3798 49.1912L72.7177 46.6352C72.8013 46.5956 72.895 46.5826 72.9863 46.598C73.0775 46.6134 73.1618 46.6564 73.2278 46.7212C73.2938 46.786 73.3383 46.8694 73.3554 46.9604C73.3725 47.0513 73.3612 47.1452 73.3232 47.2295L71.649 50.9463C71.5607 51.1414 71.401 51.2953 71.2028 51.3763C71.0045 51.4573 70.7827 51.4592 70.5831 51.3816ZM67.0114 48.4796C66.8969 48.5352 66.7694 48.5586 66.6427 48.5471C66.5159 48.5357 66.3946 48.4899 66.2919 48.4148C66.1892 48.3396 66.1089 48.2378 66.0597 48.1205C66.0104 48.0031 65.9941 47.8745 66.0125 47.7485L68.0494 33.6349C68.0602 33.5561 68.0959 33.4828 68.1512 33.4256C68.2065 33.3684 68.2786 33.3304 68.357 33.317C68.4354 33.3036 68.5161 33.3156 68.5872 33.3512C68.6584 33.3868 68.7163 33.4442 68.7526 33.515L74.2831 44.1518C74.3201 44.2282 74.3417 44.3111 74.3465 44.3958C74.3514 44.4805 74.3395 44.5654 74.3115 44.6455C74.2835 44.7256 74.24 44.7994 74.1834 44.8626C74.1268 44.9259 74.0583 44.9773 73.9817 45.014L67.0114 48.4796ZM74.3501 42.5306L69.0149 32.2705C68.8859 32.0231 68.8565 31.7358 68.9328 31.4675C69.0091 31.1992 69.1853 30.9703 69.4251 30.8278L75.0058 27.5045C75.0995 27.4482 75.207 27.4188 75.3163 27.4196C75.4257 27.4204 75.5327 27.4514 75.6255 27.5091C75.7184 27.5668 75.7936 27.649 75.8428 27.7466C75.892 27.8443 75.9132 27.9536 75.9043 28.0626L74.6514 42.4636C74.6485 42.4979 74.6346 42.5304 74.6119 42.5563C74.5893 42.5821 74.5589 42.6001 74.5253 42.6076C74.4917 42.6151 74.4566 42.6116 74.4251 42.5978C74.3936 42.5839 74.3673 42.5604 74.3501 42.5306V42.5306Z" fill="#1D1D1B"/>
<path d="M15.535 100.64C15.5346 100.702 15.5504 100.763 15.5807 100.817C15.611 100.872 15.6549 100.917 15.708 100.949C17.4017 102.091 18.4983 103.787 18.4983 106.279C18.4983 110.744 15.1778 112.993 11.475 112.993H2.45381C1.79807 112.993 1.17303 112.714 1.17303 111.876V90.0168C1.17303 89.1797 1.79807 88.9007 2.45381 88.9007H10.9309C14.6002 88.9007 17.8873 91.0102 17.8873 95.5083C17.8873 97.8968 16.9525 99.2808 15.708 100.352C15.6189 100.425 15.5578 100.527 15.535 100.64V100.64ZM10.9309 99.6157C13.3529 99.6157 15.0495 98.1954 15.0495 95.5306C15.0495 92.8658 13.1799 91.4678 10.9309 91.4678H4.25359C4.01083 91.4678 3.94107 91.5376 3.94107 91.7803V99.2892C3.94107 99.5319 4.01083 99.6017 4.25359 99.6017L10.9309 99.6157ZM4.25359 102.174C4.01083 102.174 3.94107 102.244 3.94107 102.487V110.133C3.94107 110.375 4.01083 110.445 4.25359 110.445H11.4862C13.805 110.445 15.6717 109.028 15.6717 106.293C15.6717 103.558 13.978 102.16 11.4053 102.16L4.25359 102.174Z" fill="#1D1D1B"/>
<path d="M27.9911 110.119C27.9911 110.361 28.0609 110.431 28.3008 110.431H39.3088C40.1459 110.431 40.45 111.053 40.45 111.712C40.45 112.37 40.1375 112.993 39.3088 112.993H26.5011C25.8453 112.993 25.2231 112.714 25.2231 111.876V90.0168C25.2231 89.1797 25.8453 88.9007 26.5011 88.9007H38.96C39.7971 88.9007 40.1013 89.5564 40.1013 90.1815C40.1013 90.8065 39.7887 91.4594 38.96 91.4594H28.3008C28.0609 91.4594 27.9911 91.5292 27.9911 91.772V98.9013C27.9911 99.1413 28.0609 99.2111 28.3008 99.2111H37.509C38.3461 99.2111 38.6503 99.8696 38.6503 100.492C38.6503 101.114 38.3405 101.773 37.509 101.773H28.3008C28.0609 101.773 27.9911 101.842 27.9911 102.082V110.119Z" fill="#1D1D1B"/>
<path d="M49.354 107.457C49.2422 107.456 49.1334 107.493 49.0453 107.562C48.9572 107.631 48.8949 107.727 48.8685 107.836L47.105 112.301C47.0391 112.545 46.8933 112.76 46.6911 112.911C46.4888 113.063 46.2416 113.143 45.9889 113.138C45.3303 113.138 44.4653 112.722 44.4653 111.927C44.4685 111.689 44.5158 111.455 44.6048 111.235L52.8057 90.4382C53.3945 88.9872 54.2009 88.778 54.9152 88.778C55.6295 88.778 56.4387 88.9872 57.0275 90.4382L65.2284 111.235C65.3167 111.455 65.3631 111.69 65.3651 111.927C65.3651 112.655 64.5698 113.138 63.8443 113.138C63.5909 113.146 63.3422 113.067 63.1394 112.915C62.9365 112.763 62.7915 112.546 62.7282 112.301L60.9619 107.836C60.9356 107.728 60.8738 107.632 60.7862 107.563C60.6987 107.494 60.5905 107.457 60.4792 107.457H49.354ZM59.4914 104.895C59.5946 104.895 59.7007 104.862 59.7007 104.722C59.6871 104.639 59.6637 104.557 59.6309 104.479L55.2026 92.7598C55.0966 92.517 55.0631 92.2408 54.9236 92.2408C54.7841 92.2408 54.7506 92.5198 54.6445 92.7598L50.2163 104.479C50.1834 104.557 50.16 104.639 50.1465 104.722C50.1465 104.862 50.2497 104.895 50.353 104.895H59.4914Z" fill="#1D1D1B"/>
<path d="M84.4958 107.005C84.5293 107.074 84.6325 107.247 84.8055 107.247C84.9785 107.247 84.9785 107.004 84.9785 106.868V89.9805C84.9785 89.0123 85.6705 88.7695 86.3737 88.7695C87.0769 88.7695 87.7689 89.0123 87.7689 89.9805V111.02C87.7689 112.334 87.1829 113.129 86.1086 113.129C85.2436 113.129 84.6548 112.923 83.8596 111.572L74.032 94.8944C73.9985 94.8246 73.8952 94.6516 73.7222 94.6516C73.5492 94.6516 73.5492 94.8944 73.5492 95.0339V111.918C73.5492 112.889 72.8572 113.129 72.1541 113.129C71.4509 113.129 70.7589 112.889 70.7589 111.918V90.8818C70.7589 89.5648 71.3449 88.7695 72.4191 88.7695C73.2842 88.7695 73.8729 88.9788 74.6682 90.3265L84.4958 107.005Z" fill="#1D1D1B"/>
<path d="M102.348 110.571C105.29 110.571 107.299 109.15 107.299 106.555C107.299 104.549 105.948 103.441 103.699 102.576L100.169 101.226C96.9157 99.9812 94.7364 98.4939 94.7364 94.9976C94.7364 91.2948 97.8504 88.7695 102.348 88.7695C105.153 88.7695 107.193 89.5313 108.51 90.6028C108.666 90.7157 108.797 90.8607 108.893 91.0281C108.99 91.1956 109.049 91.3816 109.068 91.5738C109.068 92.2296 108.445 92.969 107.787 92.969C107.48 92.9665 107.183 92.8559 106.95 92.6565C105.739 91.8612 104.528 91.3422 102.346 91.3422C99.5079 91.3422 97.5714 92.8295 97.5714 95.0088C97.5714 96.9481 98.9889 97.8466 101.065 98.6362L104.603 99.9812C108.099 101.332 110.142 103.302 110.142 106.555C110.142 110.604 106.646 113.129 102.354 113.129C99.067 113.129 96.5752 111.955 94.915 110.339C94.7818 110.221 94.6735 110.077 94.5964 109.917C94.5193 109.756 94.4749 109.582 94.4657 109.404C94.4657 108.746 95.2275 108.054 95.8163 108.054C95.9799 108.048 96.1426 108.08 96.2923 108.146C96.4421 108.212 96.575 108.311 96.6813 108.436C98.2291 109.844 100.256 110.608 102.348 110.571Z" fill="#1D1D1B"/>
<path d="M127.054 103.129L132.914 90.7758C133.815 88.909 134.368 88.7695 135.266 88.7695C136.41 88.7695 137.033 89.4978 137.033 90.8818V111.918C137.033 112.889 136.304 113.129 135.637 113.129C134.971 113.129 134.242 112.889 134.242 111.918V95.5529C134.242 95.5529 134.242 95.2738 133.999 95.2738C133.946 95.277 133.896 95.2952 133.853 95.3264C133.81 95.3575 133.776 95.4003 133.757 95.4496L128.854 105.447C128.198 106.798 127.54 107.041 126.848 107.041C126.156 107.041 125.497 106.798 124.842 105.447L119.928 95.4496C119.908 95.4003 119.875 95.3575 119.832 95.3264C119.789 95.2952 119.738 95.277 119.685 95.2738C119.442 95.2738 119.442 95.5529 119.442 95.5529V111.918C119.442 112.889 118.75 113.129 118.047 113.129C117.344 113.129 116.652 112.889 116.652 111.918V90.8818C116.652 89.4867 117.274 88.7695 118.418 88.7695C119.317 88.7695 119.869 88.909 120.77 90.7758L126.63 103.129C126.63 103.129 126.697 103.302 126.837 103.302C126.976 103.302 127.054 103.129 127.054 103.129Z" fill="#1D1D1B"/>
<path d="M144.98 89.9805C144.98 89.0123 145.705 88.7695 146.375 88.7695C147.044 88.7695 147.77 89.0123 147.77 89.9805V111.918C147.77 112.889 147.078 113.129 146.375 113.129C145.672 113.129 144.98 112.889 144.98 111.918V89.9805Z" fill="#1D1D1B"/>
<path d="M154.634 91.4678C153.769 91.4678 153.457 90.8456 153.457 90.2233C153.457 89.6011 153.769 88.9091 154.634 88.9091H169.166C170.031 88.9091 170.344 89.5648 170.344 90.2233C170.344 90.8818 170.031 91.4678 169.166 91.4678H163.586C163.379 91.4678 163.276 91.5376 163.276 91.7803V111.918C163.276 112.889 162.548 113.129 161.881 113.129C161.214 113.129 160.486 112.889 160.486 111.918V91.7803C160.486 91.5376 160.416 91.4678 160.173 91.4678H154.634Z" fill="#1D1D1B"/>
<path d="M178.827 111.918C178.827 112.889 178.135 113.129 177.431 113.129C176.728 113.129 176.036 112.889 176.036 111.918V89.9805C176.036 89.0123 176.764 88.7695 177.431 88.7695C178.098 88.7695 178.827 89.0123 178.827 89.9805V99.2892C178.827 99.5319 178.893 99.6017 179.136 99.6017H189.795C190.002 99.6017 190.105 99.5319 190.105 99.2892V89.9805C190.105 89.0123 190.833 88.7695 191.5 88.7695C192.167 88.7695 192.895 89.0123 192.895 89.9805V111.918C192.895 112.889 192.17 113.129 191.5 113.129C190.831 113.129 190.105 112.889 190.105 111.918V102.473C190.105 102.23 190.002 102.16 189.795 102.16H179.136C178.893 102.16 178.827 102.23 178.827 102.473V111.918Z" fill="#1D1D1B"/>
<path d="M215.333 110.571C218.274 110.571 220.28 109.15 220.28 106.555C220.28 104.549 218.929 103.441 216.68 102.576L213.148 101.226C209.897 99.9812 207.715 98.4939 207.715 94.9976C207.715 91.2948 210.832 88.7695 215.33 88.7695C218.12 88.7695 220.174 89.5313 221.488 90.6028C221.645 90.7157 221.776 90.8607 221.872 91.0281C221.968 91.1956 222.028 91.3816 222.046 91.5738C222.046 92.2296 221.424 92.969 220.766 92.969C220.458 92.9665 220.162 92.8559 219.928 92.6565C218.717 91.8612 217.506 91.3422 215.327 91.3422C212.489 91.3422 210.55 92.8295 210.55 95.0088C210.55 96.9481 211.97 97.8466 214.046 98.6362L217.576 99.9868C221.07 101.337 223.112 103.307 223.112 106.561C223.112 110.61 219.616 113.135 215.327 113.135C212.037 113.135 209.548 111.96 207.885 110.345C207.753 110.226 207.645 110.082 207.568 109.922C207.49 109.762 207.446 109.587 207.436 109.41C207.436 108.751 208.198 108.059 208.787 108.059C208.95 108.054 209.113 108.086 209.263 108.152C209.412 108.218 209.545 108.317 209.652 108.442C211.204 109.85 213.237 110.612 215.333 110.571V110.571Z" fill="#1D1D1B"/>
<path d="M1.11441 123.384C1.09833 122.946 1.17199 122.509 1.33087 122.1C1.48975 121.691 1.7305 121.32 2.03832 121.007C2.34615 120.695 2.71457 120.449 3.12094 120.284C3.52731 120.12 3.96307 120.04 4.40145 120.049C4.88731 120.038 5.36823 120.149 5.80015 120.372C6.23207 120.595 6.60119 120.922 6.8737 121.325L6.19564 121.701C5.99457 121.412 5.72632 121.175 5.41385 121.012C5.10138 120.849 4.754 120.763 4.40145 120.764C3.00627 120.764 1.94593 121.846 1.94593 123.384C1.94593 124.921 3.01743 126.001 4.40145 126.001C4.75435 126.003 5.10242 125.919 5.4152 125.756C5.72798 125.592 5.99594 125.355 6.19564 125.064L6.88207 125.44C6.60715 125.842 6.23636 126.169 5.80324 126.392C5.37012 126.615 4.88833 126.726 4.40145 126.716C3.96331 126.725 3.5278 126.646 3.12162 126.481C2.71544 126.316 2.34716 126.071 2.03937 125.759C1.73158 125.447 1.49078 125.075 1.33172 124.667C1.17266 124.258 1.09872 123.822 1.11441 123.384V123.384Z" fill="#1D1D1B" stroke="#1D1D1B" stroke-width="0.25" stroke-miterlimit="10"/>
<path d="M20.5409 120.049C22.4439 120.049 23.7386 121.481 23.7386 123.384C23.7386 125.287 22.4439 126.716 20.5409 126.716C18.6379 126.716 17.3431 125.287 17.3431 123.384C17.3431 121.481 18.6267 120.049 20.5409 120.049ZM20.5409 120.764C19.0899 120.764 18.1719 121.88 18.1719 123.384C18.1719 124.888 19.0899 126.001 20.5409 126.001C21.9919 126.001 22.9071 124.885 22.9071 123.384C22.9071 121.883 21.9807 120.764 20.5409 120.764Z" fill="#1D1D1B" stroke="#1D1D1B" stroke-width="0.25" stroke-miterlimit="10"/>
<path d="M34.6907 120.155H38.9125V120.87H35.4916V122.949H38.84V123.663H35.4916V126.601H34.6907V120.155Z" fill="#1D1D1B" stroke="#1D1D1B" stroke-width="0.25" stroke-miterlimit="10"/>
<path d="M49.7001 120.155H53.9219V120.87H50.5009V122.949H53.8493V123.663H50.5009V126.601H49.7001V120.155Z" fill="#1D1D1B" stroke="#1D1D1B" stroke-width="0.25" stroke-miterlimit="10"/>
<path d="M64.701 120.155H68.9228V120.87H65.5102V122.949H68.8586V123.663H65.5102V125.895H68.9312V126.612H64.701V120.155Z" fill="#1D1D1B" stroke="#1D1D1B" stroke-width="0.25" stroke-miterlimit="10"/>
<path d="M79.9029 120.155H84.1247V120.87H80.7037V122.949H84.0521V123.663H80.7037V125.895H84.1247V126.612H79.9029V120.155Z" fill="#1D1D1B" stroke="#1D1D1B" stroke-width="0.25" stroke-miterlimit="10"/>
<path d="M109.372 124.04H108.085V126.601H107.285V120.155H109.874C111.052 120.155 111.891 120.909 111.891 122.109C111.917 122.579 111.756 123.041 111.442 123.392C111.128 123.744 110.688 123.956 110.217 123.984L111.958 126.612H111.021L109.372 124.04ZM109.776 120.87H108.085V123.334H109.776C109.943 123.342 110.11 123.316 110.266 123.257C110.422 123.199 110.565 123.11 110.686 122.994C110.807 122.879 110.903 122.741 110.969 122.587C111.035 122.434 111.068 122.269 111.068 122.102C111.068 121.935 111.035 121.77 110.969 121.616C110.903 121.463 110.807 121.324 110.686 121.209C110.565 121.094 110.422 121.005 110.266 120.946C110.11 120.888 109.943 120.862 109.776 120.87V120.87Z" fill="#1D1D1B" stroke="#1D1D1B" stroke-width="0.25" stroke-miterlimit="10"/>
<path d="M125.79 120.049C127.693 120.049 128.988 121.481 128.988 123.384C128.988 125.287 127.693 126.716 125.79 126.716C123.887 126.716 122.592 125.287 122.592 123.384C122.592 121.481 123.879 120.049 125.79 120.049ZM125.79 120.764C124.342 120.764 123.424 121.88 123.424 123.384C123.424 124.888 124.342 126.001 125.79 126.001C127.238 126.001 128.159 124.885 128.159 123.384C128.159 121.883 127.23 120.764 125.79 120.764Z" fill="#1D1D1B" stroke="#1D1D1B" stroke-width="0.25" stroke-miterlimit="10"/>
<path d="M143.997 125.17H140.733L140.175 126.601H139.284L141.874 120.155H142.87L145.468 126.601H144.581L143.997 125.17ZM140.964 124.45H143.755L142.359 120.864L140.964 124.45Z" fill="#1D1D1B" stroke="#1D1D1B" stroke-width="0.25" stroke-miterlimit="10"/>
<path d="M156.08 125.083C156.334 125.37 156.646 125.601 156.996 125.759C157.345 125.917 157.724 126 158.108 126.001C159.258 126.001 159.626 125.382 159.626 124.885C159.626 124.112 158.842 123.9 157.994 123.669C156.959 123.39 155.809 123.11 155.809 121.841C155.809 120.778 156.758 120.055 158.022 120.055C158.445 120.036 158.868 120.106 159.262 120.261C159.657 120.416 160.015 120.652 160.313 120.954L159.83 121.542C159.591 121.289 159.301 121.089 158.979 120.956C158.658 120.822 158.311 120.759 157.963 120.769C157.19 120.769 156.64 121.185 156.64 121.793C156.64 122.402 157.385 122.631 158.206 122.857C159.258 123.136 160.458 123.465 160.458 124.81C160.458 125.745 159.819 126.702 158.08 126.702C157.619 126.721 157.158 126.639 156.731 126.462C156.304 126.285 155.921 126.018 155.608 125.678L156.08 125.083Z" fill="#1D1D1B" stroke="#1D1D1B" stroke-width="0.25" stroke-miterlimit="10"/>
<path d="M172.944 120.87H170.907V120.155H175.793V120.87H173.745V126.601H172.944V120.87Z" fill="#1D1D1B" stroke="#1D1D1B" stroke-width="0.25" stroke-miterlimit="10"/>
<path d="M186.553 120.155H190.775V120.87H187.357V122.949H190.705V123.663H187.357V125.895H190.775V126.612H186.553V120.155Z" fill="#1D1D1B" stroke="#1D1D1B" stroke-width="0.25" stroke-miterlimit="10"/>
<path d="M203.834 124.04H202.545V126.601H201.741V120.155H204.33C205.508 120.155 206.351 120.909 206.351 122.109C206.376 122.579 206.215 123.041 205.901 123.392C205.587 123.744 205.147 123.956 204.676 123.984L206.415 126.612H205.469L203.834 124.04ZM204.238 120.87H202.545V123.334H204.233C204.399 123.342 204.566 123.316 204.722 123.257C204.879 123.199 205.022 123.11 205.142 122.994C205.263 122.879 205.359 122.741 205.425 122.587C205.491 122.434 205.525 122.269 205.525 122.102C205.525 121.935 205.491 121.77 205.425 121.616C205.359 121.463 205.263 121.324 205.142 121.209C205.022 121.094 204.879 121.005 204.722 120.946C204.566 120.888 204.399 120.862 204.233 120.87H204.238Z" fill="#1D1D1B" stroke="#1D1D1B" stroke-width="0.25" stroke-miterlimit="10"/>
<path d="M219.192 123.875L216.65 120.155H217.587L219.588 123.152L221.586 120.155H222.523L219.993 123.875V126.601H219.192V123.875Z" fill="#1D1D1B" stroke="#1D1D1B" stroke-width="0.25" stroke-miterlimit="10"/>
<path d="M199.151 99.0352C199.151 98.067 199.877 97.8242 200.547 97.8242C201.216 97.8242 201.942 98.067 201.942 99.0352V102.077C201.942 103.045 201.25 103.288 200.547 103.288C199.843 103.288 199.151 103.045 199.151 102.077V99.0352Z" fill="#1D1D1B"/>
</svg>
